<svg class="ldi-tfy6x1" width="100%" height="100%" xmlns="http://www.w3.org/2000/svg" xmlns:xlink="http://www.w3.org/1999/xlink" viewBox="0 0 100 100" preserveAspectRatio="xMidYMid"><!--?xml version="1.0" encoding="utf-8"?--><!--Generator: Adobe Illustrator 21.0.0, SVG Export Plug-In . SVG Version: 6.00 Build 0)--><svg version="1.1" id="圖層_1" xmlns="http://www.w3.org/2000/svg" xmlns:xlink="http://www.w3.org/1999/xlink" x="0px" y="0px" viewBox="0 0 100 100" style="transform-origin: 50px 50px 0px;" xml:space="preserve"><g style="transform-origin: 50px 50px 0px;"><g style="transform-origin: 50px 50px 0px; transform: scale(0.6);"><g style="transform-origin: 50px 50px 0px;"><g><style type="text/css" class="ld ldt-bounce-in" style="transform-origin: 50px 50px 0px; animation-duration: 1s; animation-delay: 0s; animation-direction: normal;">.st0{fill:none;stroke:#333;stroke-width:3.5;stroke-miterlimit:10}.st1{fill:#666}.st1,.st2,.st3,.st4{stroke:#333;stroke-width:3.5;stroke-miterlimit:10}.st2{stroke-linecap:round;fill:#666}.st3,.st4{fill:#e15b64}.st4{fill:#666;stroke-linecap:round;stroke-linejoin:round}.st5{fill:#f47e60}.st6{opacity:.2}.st7{fill:none;stroke:#fff;stroke-width:3.5;stroke-linecap:round;stroke-miterlimit:10}.st8{fill:#e0e0e0;stroke:#333}.st10,.st11,.st8,.st9{stroke-width:3.5;stroke-miterlimit:10}.st9{opacity:.2;stroke:#000}.st10,.st11{fill:#a0c8d7;stroke:#333}.st11{fill:#333}.st12{fill:#e0e0e0}.st13{fill:#f8b26a}.st14,.st15{fill:#a0c8d7;stroke:#fff;stroke-width:3.5;stroke-linecap:round;stroke-miterlimit:10}.st15{fill:#f5e6c8;stroke:#333}.st16{fill:#fff}.st16,.st17,.st18{stroke:#333;stroke-width:3.5;stroke-miterlimit:10}.st17{stroke-dasharray:3,3;fill:none}.st18{fill:#f5e6c8}.st19,.st20{fill:none;stroke-linecap:round}.st19{stroke:#333;stroke-width:3.5;stroke-miterlimit:10}.st20{stroke-dasharray:3.837,5.7554}.st20,.st21,.st22{stroke:#333;stroke-width:3.5;stroke-miterlimit:10}.st21{stroke-linecap:round;stroke-dasharray:4,6;fill:none}.st22{fill:#f5e169}.st23{fill:#333}.st24{fill:#fff}.st25,.st26,.st27{fill:none;stroke:#333;stroke-miterlimit:10}.st25{stroke-dasharray:3.733,3.733;stroke-width:3.5}.st26,.st27{stroke-width:7}.st27{fill:#f8b26a;stroke-width:3.5}.st28,.st29{fill:#f5e6c8}.st29{stroke:#fff;stroke-linecap:round}.st29,.st30,.st31,.st32,.st33{stroke-width:3.5;stroke-miterlimit:10}.st30{opacity:.2;stroke-linecap:round;stroke:#000}.st31,.st32,.st33{fill:#abbd81;stroke:#333}.st32,.st33{fill:none;stroke:#e0e0e0;stroke-width:7}.st33{fill:#849b87;stroke:#333;stroke-width:3.5}.st34{fill:#abbd81}.st35,.st36,.st37{opacity:.2;stroke:#000;stroke-width:3.5;stroke-miterlimit:10}.st35{stroke-linecap:round;stroke-linejoin:round}.st36,.st37{fill:#abbd81}.st37{fill:#f8b26a}.st38{fill:url(#SVGID_1_);stroke:#333}.st38,.st39,.st40,.st41{stroke-width:3.5;stroke-miterlimit:10}.st39{opacity:.2;stroke-linejoin:round;stroke:#000}.st40,.st41{fill:#77a4bd;stroke:#333}.st41{fill:none;stroke-linecap:round;stroke-dasharray:3.5707,5.356}.st42{fill:#f2f2f2}.st43,.st44,.st45{stroke-width:3.5;stroke-miterlimit:10}.st43{stroke:#333;fill:url(#SVGID_2_)}.st44,.st45{fill:none;stroke-linecap:round}.st44{stroke-linejoin:round;stroke:#333}.st45{stroke:#e0e0e0}.st46{fill:url(#SVGID_3_);stroke:#333}.st46,.st47,.st48,.st49{stroke-width:3.5;stroke-miterlimit:10}.st47{stroke-linecap:round;stroke-linejoin:round;fill:none;stroke:#fff}.st48,.st49{fill:url(#SVGID_4_);stroke:#333}.st49{fill:url(#SVGID_5_)}.st50,.st51{fill:none;stroke-width:3.5}.st50{stroke-linecap:round;stroke-linejoin:round;stroke-miterlimit:10;stroke:#f8b26a}.st51{stroke:#e0e0e0}.st51,.st52,.st53,.st54{stroke-miterlimit:10}.st52{stroke-width:12;fill:none;stroke:#e15b64}.st53,.st54{fill:#333;stroke:#333}.st54{fill:none;stroke-width:3;stroke-linecap:round}.st55{opacity:.5}.st56{fill:none;stroke:#000;stroke-linecap:round;stroke-miterlimit:10}.st57{fill:#e15b64}.st58,.st59{stroke-miterlimit:10}.st58{stroke-linecap:round;fill:none;stroke:#fff;stroke-width:3}.st59{fill:#f47e60;stroke:#333;stroke-width:3.5}.st60,.st61{stroke-linecap:round}.st60{stroke:#333;stroke-width:3.5;stroke-miterlimit:10;fill:#fff}.st61{fill:#333}.st61,.st62,.st63,.st64,.st65,.st66,.st67,.st68{stroke:#333;stroke-width:3.5;stroke-miterlimit:10}.st63,.st64,.st65,.st66,.st67,.st68{fill:#f5e169;stroke-linecap:round}.st64,.st65,.st66,.st67,.st68{fill:none;stroke:#f8b26a}.st65,.st66,.st67,.st68{fill:#abbd81;stroke:#333}.st66,.st67,.st68{fill:#a0c8d7}.st67,.st68{fill:#f47e60}.st68{fill:#c33737}</style><g style="transform-origin: 50px 50px 0px;"><g><g class="ld ldt-bounce-in" style="transform-origin: 50px 50px 0px; animation-duration: 1s; animation-delay: 0.025641s; animation-direction: normal;"><path class="st5" d="M81.511,25.248c0,6.729-9.463,14.105-11.332,14.105c-1.868,0-11.332-7.376-11.332-14.105 c0-7.467,11.332-7.467,11.332-0.393C70.179,17.781,81.511,17.781,81.511,25.248z" fill="rgb(244, 126, 96)" style="fill: rgb(244, 126, 96);"></path></g><g class="ld ldt-bounce-in" style="transform-origin: 50px 50px 0px; animation-duration: 1s; animation-delay: 0.0512821s; animation-direction: normal;"><path class="st6" d="M75.551,19.605c0.339,1.051,0.538,2.217,0.538,3.49c0,5.854-4.222,12.08-7.583,15.571 c0.74,0.44,1.333,0.687,1.673,0.687c1.868,0,11.332-7.376,11.332-14.105C81.511,21.385,78.479,19.526,75.551,19.605z" fill="rgb(0, 0, 0)" style="fill: rgb(0, 0, 0);"></path></g><g class="ld ldt-bounce-in" style="transform-origin: 50px 50px 0px; animation-duration: 1s; animation-delay: 0.0769231s; animation-direction: normal;"><path class="st7" d="M61.807,24.734c-0.276,0.35-0.337,0.832-0.259,1.27s0.277,0.845,0.482,1.24 c0.198,0.382,0.402,0.762,0.612,1.137" stroke="rgb(255, 255, 255)" style="stroke: rgb(255, 255, 255);"></path></g><g class="ld ldt-bounce-in" style="transform-origin: 50px 50px 0px; animation-duration: 1s; animation-delay: 0.102564s; animation-direction: normal;"><path class="st7" d="M65.032,32.048c0.062,0.107,0.124,0.215,0.186,0.322" stroke="rgb(255, 255, 255)" style="stroke: rgb(255, 255, 255);"></path></g></g></g><g style="transform-origin: 50px 50px 0px;"><g><g class="ld ldt-bounce-in" style="transform-origin: 50px 50px 0px; animation-duration: 1s; animation-delay: 0.128205s; animation-direction: normal;"><path class="st5" d="M39.346,59.899c0,7.583-10.665,15.896-12.771,15.896s-12.771-8.313-12.771-15.896 c0-8.415,12.771-8.415,12.771-0.443C26.575,51.483,39.346,51.483,39.346,59.899z" fill="rgb(244, 126, 96)" style="fill: rgb(244, 126, 96);"></path></g><g class="ld ldt-bounce-in" style="transform-origin: 50px 50px 0px; animation-duration: 1s; animation-delay: 0.153846s; animation-direction: normal;"><path class="st6" d="M32.63,53.539c0.382,1.185,0.606,2.499,0.606,3.933c0,6.597-4.758,13.614-8.546,17.549 c0.834,0.496,1.502,0.774,1.885,0.774c2.106,0,12.771-8.313,12.771-15.896C39.346,55.545,35.929,53.45,32.63,53.539z" fill="rgb(0, 0, 0)" style="fill: rgb(0, 0, 0);"></path></g><g class="ld ldt-bounce-in" style="transform-origin: 50px 50px 0px; animation-duration: 1s; animation-delay: 0.179487s; animation-direction: normal;"><path class="st7" d="M16.967,60.153c0.239,1.507,0.837,2.956,1.732,4.193" stroke="rgb(255, 255, 255)" style="stroke: rgb(255, 255, 255);"></path></g><g class="ld ldt-bounce-in" style="transform-origin: 50px 50px 0px; animation-duration: 1s; animation-delay: 0.205128s; animation-direction: normal;"><path class="st7" d="M21.073,67.899c0.056,0.028,0.111,0.056,0.167,0.083" stroke="rgb(255, 255, 255)" style="stroke: rgb(255, 255, 255);"></path></g></g></g><g class="ld ldt-bounce-in" style="transform-origin: 50px 50px 0px; animation-duration: 1s; animation-delay: 0.230769s; animation-direction: normal;"><path class="st13" d="M23.553,74.507c0,3.365-4.732,7.053-5.667,7.053c-0.934,0-5.667-3.689-5.667-7.053 c0-3.734,5.667-3.734,5.667-0.197C17.886,70.773,23.553,70.773,23.553,74.507z" fill="rgb(248, 178, 106)" style="fill: rgb(248, 178, 106);"></path></g><g class="ld ldt-bounce-in" style="transform-origin: 50px 50px 0px; animation-duration: 1s; animation-delay: 0.25641s; animation-direction: normal;"><path class="st13" d="M86.719,42.035c0,3.513-4.941,7.364-5.917,7.364c-0.976,0-5.917-3.851-5.917-7.364 c0-3.899,5.917-3.899,5.917-0.205C80.803,38.136,86.719,38.136,86.719,42.035z" fill="rgb(248, 178, 106)" style="fill: rgb(248, 178, 106);"></path></g><g class="ld ldt-bounce-in" style="transform-origin: 50px 50px 0px; animation-duration: 1s; animation-delay: 0.282051s; animation-direction: normal;"><path class="st13" d="M45.292,70.424c0,3.779-5.315,7.922-6.365,7.922s-6.365-4.143-6.365-7.922c0-4.194,6.365-4.194,6.365-0.221 C38.928,66.23,45.292,66.23,45.292,70.424z" fill="rgb(248, 178, 106)" style="fill: rgb(248, 178, 106);"></path></g><g style="transform-origin: 50px 50px 0px;"><g><g class="ld ldt-bounce-in" style="transform-origin: 50px 50px 0px; animation-duration: 1s; animation-delay: 0.307692s; animation-direction: normal;"><path class="st57" d="M80,41.126c0,17.814-25.054,37.341-30,37.341S20,58.939,20,41.126c0-19.769,30-19.769,30-1.04 C50,21.357,80,21.357,80,41.126z" fill="rgb(225, 91, 100)" style="fill: rgb(225, 91, 100);"></path></g><g class="ld ldt-bounce-in" style="transform-origin: 50px 50px 0px; animation-duration: 1s; animation-delay: 0.333333s; animation-direction: normal;"><path class="st6" d="M64.222,26.187c0.897,2.783,1.423,5.871,1.423,9.239c0,15.498-11.177,31.981-20.075,41.224 C47.53,77.814,49.1,78.467,50,78.467c4.946,0,30-19.527,30-37.341C80,30.899,71.973,25.977,64.222,26.187z" fill="rgb(0, 0, 0)" style="fill: rgb(0, 0, 0);"></path></g><g class="ld ldt-bounce-in" style="transform-origin: 50px 50px 0px; animation-duration: 1s; animation-delay: 0.358974s; animation-direction: normal;"><path class="st7" d="M26.835,51.646c-1.526-3.05-2.509-6.218-2.615-9.352" stroke="rgb(255, 255, 255)" style="stroke: rgb(255, 255, 255);"></path></g><g class="ld ldt-bounce-in" style="transform-origin: 50px 50px 0px; animation-duration: 1s; animation-delay: 0.384615s; animation-direction: normal;"><path class="st7" d="M30.76,57.875c-0.415-0.548-0.818-1.104-1.207-1.668" stroke="rgb(255, 255, 255)" style="stroke: rgb(255, 255, 255);"></path></g></g></g><g class="ld ldt-bounce-in" style="transform-origin: 50px 50px 0px; animation-duration: 1s; animation-delay: 0.410256s; animation-direction: normal;"><path class="st13" d="M37.553,15.786c0,2.963-4.167,6.211-4.99,6.211c-0.823,0-4.99-3.248-4.99-6.211c0-3.288,4.99-3.288,4.99-0.173 C32.563,12.498,37.553,12.498,37.553,15.786z" fill="rgb(248, 178, 106)" style="fill: rgb(248, 178, 106);"></path></g><g style="transform-origin: 50px 50px 0px;"><g><g class="ld ldt-bounce-in" style="transform-origin: 50px 50px 0px; animation-duration: 1s; animation-delay: 0.435897s; animation-direction: normal;"><path class="st5" d="M90.729,66.048c0,9.853-13.857,20.654-16.593,20.654S57.543,75.901,57.543,66.048 c0-10.934,16.593-10.934,16.593-0.575C74.136,55.114,90.729,55.114,90.729,66.048z" fill="rgb(244, 126, 96)" style="fill: rgb(244, 126, 96);"></path></g><g class="ld ldt-bounce-in" style="transform-origin: 50px 50px 0px; animation-duration: 1s; animation-delay: 0.461538s; animation-direction: normal;"><path class="st6" d="M82.003,57.786c0.496,1.539,0.787,3.247,0.787,5.11c0,8.572-6.182,17.689-11.104,22.801 c1.083,0.644,1.952,1.005,2.45,1.005c2.736,0,16.593-10.801,16.593-20.654C90.729,60.392,86.289,57.669,82.003,57.786z" fill="rgb(0, 0, 0)" style="fill: rgb(0, 0, 0);"></path></g><g class="ld ldt-bounce-in" style="transform-origin: 50px 50px 0px; animation-duration: 1s; animation-delay: 0.487179s; animation-direction: normal;"><path class="st7" d="M61.233,63.773c-0.303,0.411-0.396,0.939-0.438,1.448c-0.103,1.256,0.065,2.531,0.477,3.722" stroke="rgb(255, 255, 255)" style="stroke: rgb(255, 255, 255);"></path></g><g class="ld ldt-bounce-in" style="transform-origin: 50px 50px 0px; animation-duration: 1s; animation-delay: 0.512821s; animation-direction: normal;"><path class="st7" d="M63.968,73.987c0.076,0.129,0.152,0.259,0.229,0.388" stroke="rgb(255, 255, 255)" style="stroke: rgb(255, 255, 255);"></path></g></g></g><g style="transform-origin: 50px 50px 0px;"><g><g class="ld ldt-bounce-in" style="transform-origin: 50px 50px 0px; animation-duration: 1s; animation-delay: 0.538462s; animation-direction: normal;"><path class="st5" d="M36.235,22.572c0,8.006-11.259,16.781-13.482,16.781S9.271,30.577,9.271,22.572 c0-8.884,13.482-8.884,13.482-0.468C22.753,13.687,36.235,13.687,36.235,22.572z" fill="rgb(244, 126, 96)" style="fill: rgb(244, 126, 96);"></path></g><g class="ld ldt-bounce-in" style="transform-origin: 50px 50px 0px; animation-duration: 1s; animation-delay: 0.564103s; animation-direction: normal;"><path class="st6" d="M29.145,15.858c0.403,1.251,0.64,2.638,0.64,4.152c0,6.965-5.023,14.372-9.022,18.526 c0.88,0.523,1.586,0.817,1.99,0.817c2.223,0,13.482-8.776,13.482-16.781C36.235,17.976,32.628,15.764,29.145,15.858z" fill="rgb(0, 0, 0)" style="fill: rgb(0, 0, 0);"></path></g><g class="ld ldt-bounce-in" style="transform-origin: 50px 50px 0px; animation-duration: 1s; animation-delay: 0.589744s; animation-direction: normal;"><path class="st7" d="M12.764,21.513c-0.181,1.701,0.275,3.463,1.259,4.863" stroke="rgb(255, 255, 255)" style="stroke: rgb(255, 255, 255);"></path></g><g class="ld ldt-bounce-in" style="transform-origin: 50px 50px 0px; animation-duration: 1s; animation-delay: 0.615385s; animation-direction: normal;"><path class="st7" d="M16.49,30.274c0.042,0.042,0.083,0.083,0.125,0.125" stroke="rgb(255, 255, 255)" style="stroke: rgb(255, 255, 255);"></path></g></g></g><metadata xmlns:d="https://loading.io/stock/" class="ld ldt-bounce-in" style="transform-origin: 50px 50px 0px; animation-duration: 1s; animation-delay: 0.641026s; animation-direction: normal;">
<d:name class="ld ldt-bounce-in" style="transform-origin: 50px 50px 0px; animation-duration: 1s; animation-delay: 0.666667s; animation-direction: normal;">love</d:name>
<d:tags class="ld ldt-bounce-in" style="transform-origin: 50px 50px 0px; animation-duration: 1s; animation-delay: 0.692308s; animation-direction: normal;">love,like,heart,enchanted,favorite</d:tags>
<d:license class="ld ldt-bounce-in" style="transform-origin: 50px 50px 0px; animation-duration: 1s; animation-delay: 0.717949s; animation-direction: normal;">cc-by</d:license>
<d:slug class="ld ldt-bounce-in" style="transform-origin: 50px 50px 0px; animation-duration: 1s; animation-delay: 0.74359s; animation-direction: normal;">tfy6x1</d:slug>
</metadata></g></g></g></g><style type="text/css" class="ld ldt-bounce-in" style="transform-origin: 50px 50px 0px; animation-duration: 1s; animation-delay: 0.769231s; animation-direction: normal;">@keyframes ldt-bounce-in {
  0% {
    -webkit-transform: scale(0);
    transform: scale(0);
  }
  5% {
    -webkit-transform: scale(0.0846);
    transform: scale(0.0846);
  }
  6% {
    -webkit-transform: scale(0.191);
    transform: scale(0.191);
  }
  7% {
    -webkit-transform: scale(0.3255);
    transform: scale(0.3255);
  }
  8% {
    -webkit-transform: scale(0.4804);
    transform: scale(0.4804);
  }
  9% {
    -webkit-transform: scale(0.646);
    transform: scale(0.646);
  }
  10% {
    -webkit-transform: scale(0.8116);
    transform: scale(0.8116);
  }
  11% {
    -webkit-transform: scale(0.9665);
    transform: scale(0.9665);
  }
  12% {
    -webkit-transform: scale(1.1);
    transform: scale(1.1);
  }
  13% {
    -webkit-transform: scale(1.2069);
    transform: scale(1.2069);
  }
  14% {
    -webkit-transform: scale(1.2796);
    transform: scale(1.2796);
  }
  19% {
    -webkit-transform: scale(1.1558);
    transform: scale(1.1558);
  }
  20% {
    -webkit-transform: scale(1.07);
    transform: scale(1.07);
  }
  21% {
    -webkit-transform: scale(0.9823);
    transform: scale(0.9823);
  }
  22% {
    -webkit-transform: scale(0.901);
    transform: scale(0.901);
  }
  23% {
    -webkit-transform: scale(0.8328);
    transform: scale(0.8328);
  }
  25% {
    -webkit-transform: scale(0.7551);
    transform: scale(0.7551);
  }
  29% {
    -webkit-transform: scale(0.8516);
    transform: scale(0.8516);
  }
  31% {
    -webkit-transform: scale(0.973);
    transform: scale(0.973);
  }
  33% {
    -webkit-transform: scale(1.0857);
    transform: scale(1.0857);
  }
  35% {
    -webkit-transform: scale(1.1538);
    transform: scale(1.1538);
  }
  40% {
    -webkit-transform: scale(1.0771);
    transform: scale(1.0771);
  }
  42% {
    -webkit-transform: scale(0.9954);
    transform: scale(0.9954);
  }
  45% {
    -webkit-transform: scale(0.9057);
    transform: scale(0.9057);
  }
  52% {
    -webkit-transform: scale(0.9908);
    transform: scale(0.9908);
  }
  56% {
    -webkit-transform: scale(1.0623);
    transform: scale(1.0623);
  }
  64% {
    -webkit-transform: scale(0.9845);
    transform: scale(0.9845);
  }
  100% {
    -webkit-transform: scale(1);
    transform: scale(1);
  }
}
@-webkit-keyframes ldt-bounce-in {
  0% {
    -webkit-transform: scale(0);
    transform: scale(0);
  }
  5% {
    -webkit-transform: scale(0.0846);
    transform: scale(0.0846);
  }
  6% {
    -webkit-transform: scale(0.191);
    transform: scale(0.191);
  }
  7% {
    -webkit-transform: scale(0.3255);
    transform: scale(0.3255);
  }
  8% {
    -webkit-transform: scale(0.4804);
    transform: scale(0.4804);
  }
  9% {
    -webkit-transform: scale(0.646);
    transform: scale(0.646);
  }
  10% {
    -webkit-transform: scale(0.8116);
    transform: scale(0.8116);
  }
  11% {
    -webkit-transform: scale(0.9665);
    transform: scale(0.9665);
  }
  12% {
    -webkit-transform: scale(1.1);
    transform: scale(1.1);
  }
  13% {
    -webkit-transform: scale(1.2069);
    transform: scale(1.2069);
  }
  14% {
    -webkit-transform: scale(1.2796);
    transform: scale(1.2796);
  }
  19% {
    -webkit-transform: scale(1.1558);
    transform: scale(1.1558);
  }
  20% {
    -webkit-transform: scale(1.07);
    transform: scale(1.07);
  }
  21% {
    -webkit-transform: scale(0.9823);
    transform: scale(0.9823);
  }
  22% {
    -webkit-transform: scale(0.901);
    transform: scale(0.901);
  }
  23% {
    -webkit-transform: scale(0.8328);
    transform: scale(0.8328);
  }
  25% {
    -webkit-transform: scale(0.7551);
    transform: scale(0.7551);
  }
  29% {
    -webkit-transform: scale(0.8516);
    transform: scale(0.8516);
  }
  31% {
    -webkit-transform: scale(0.973);
    transform: scale(0.973);
  }
  33% {
    -webkit-transform: scale(1.0857);
    transform: scale(1.0857);
  }
  35% {
    -webkit-transform: scale(1.1538);
    transform: scale(1.1538);
  }
  40% {
    -webkit-transform: scale(1.0771);
    transform: scale(1.0771);
  }
  42% {
    -webkit-transform: scale(0.9954);
    transform: scale(0.9954);
  }
  45% {
    -webkit-transform: scale(0.9057);
    transform: scale(0.9057);
  }
  52% {
    -webkit-transform: scale(0.9908);
    transform: scale(0.9908);
  }
  56% {
    -webkit-transform: scale(1.0623);
    transform: scale(1.0623);
  }
  64% {
    -webkit-transform: scale(0.9845);
    transform: scale(0.9845);
  }
  100% {
    -webkit-transform: scale(1);
    transform: scale(1);
  }
}
.ldt-bounce-in {
  -webkit-transform: scale(0);
  transform: scale(0);
  -webkit-animation: ldt-bounce-in 1s ease-out forwards;
  animation: ldt-bounce-in 1s ease-out forwards;
}
</style></svg></svg>